<svg width="13" height="13" viewBox="0 0 13 13" fill="#E00000" xmlns="http://www.w3.org/2000/svg">
<path fill-rule="evenodd" clip-rule="evenodd" d="M6.41738 1.30025C6.8693 0.773011 7.58032 0.546352 8.254 0.714773L8.28571 0.7227C9.51566 1.03019 10.0697 2.46336 9.36649 3.51824L8.26755 5.16665H10.3736C11.5305 5.16665 12.3982 6.22508 12.1713 7.35953L11.3713 11.3595C11.1999 12.2165 10.4475 12.8333 9.57355 12.8333H0.666626C0.390484 12.8333 0.166626 12.6095 0.166626 12.3333V5.66665C0.166626 5.39051 0.390484 5.16665 0.666626 5.16665H3.10333L6.41738 1.30025ZM2.83329 6.16665H1.16663V11.8333H2.83329V6.16665ZM3.83329 11.8333H9.57355C9.97079 11.8333 10.3128 11.5529 10.3907 11.1634L11.1907 7.16342C11.2938 6.64776 10.8994 6.16665 10.3736 6.16665H7.33329C7.1489 6.16665 6.97947 6.06516 6.89246 5.90258C6.80545 5.74 6.81498 5.54273 6.91727 5.3893L8.53444 2.96354C8.8541 2.48405 8.60225 1.83261 8.04318 1.69284L8.01147 1.68492C7.70525 1.60836 7.38206 1.71139 7.17664 1.95104L3.83329 5.85161V11.8333Z"/>
</svg>
