<svg width="338" height="29" viewBox="0 0 338 29" fill="none" xmlns="http://www.w3.org/2000/svg">
<path d="M18.7387 28V17.56H9.01874V28H0.178741V0.480001H9.01874V10.52H18.7387V0.480001H27.5788V28H18.7387Z" fill="black"/>
<path d="M33.899 28V0.480001H42.7391V28H33.899Z" fill="black"/>
<path d="M60.9659 0.480001C70.5926 0.480001 75.4059 5.06667 75.4059 14.24C75.4059 23.4133 70.5926 28 60.9659 28H49.0459V0.480001H60.9659ZM57.8859 21.4H60.8059C64.5126 21.4 66.3659 19.4133 66.3659 15.44V13.04C66.3659 9.06667 64.5126 7.08 60.8059 7.08H57.8859V21.4Z" fill="black"/>
<path d="M92.0988 0.480001C101.725 0.480001 106.539 5.06667 106.539 14.24C106.539 23.4133 101.725 28 92.0988 28H80.1787V0.480001H92.0988ZM89.0187 21.4H91.9388C95.6454 21.4 97.4987 19.4133 97.4987 15.44V13.04C97.4987 9.06667 95.6454 7.08 91.9388 7.08H89.0187V21.4Z" fill="black"/>
<path d="M111.312 0.480001H135.112V7.08H120.152V10.88H132.952V17.2H120.152V21.4H135.392V28H111.312V0.480001Z" fill="black"/>
<path d="M159.859 28L148.299 14.64V28H140.179V0.480001H147.899L159.459 14.04V0.480001H167.579V28H159.859Z" fill="black"/>
<path d="M199.939 0C204.019 0 207.246 1.02667 209.619 3.08C211.993 5.10667 213.179 8.01333 213.179 11.8H204.739C204.739 10.2 204.313 8.93333 203.459 8C202.633 7.06667 201.446 6.6 199.899 6.6C198.113 6.6 196.793 7.16 195.939 8.28C195.113 9.4 194.699 10.96 194.699 12.96V15.52C194.699 17.4933 195.113 19.0533 195.939 20.2C196.793 21.32 198.086 21.88 199.819 21.88C201.526 21.88 202.819 21.44 203.699 20.56C204.579 19.68 205.019 18.44 205.019 16.84H213.179C213.179 20.6 212.019 23.48 209.699 25.48C207.406 27.48 204.153 28.48 199.939 28.48C195.246 28.48 191.686 27.28 189.259 24.88C186.859 22.48 185.659 18.9333 185.659 14.24C185.659 9.54667 186.859 6 189.259 3.6C191.686 1.2 195.246 0 199.939 0Z" fill="black"/>
<path d="M231.632 0C236.379 0 240.046 1.21333 242.632 3.64C245.219 6.06667 246.512 9.6 246.512 14.24C246.512 18.88 245.219 22.4133 242.632 24.84C240.046 27.2667 236.379 28.48 231.632 28.48C226.886 28.48 223.219 27.28 220.632 24.88C218.072 22.4533 216.792 18.9067 216.792 14.24C216.792 9.57333 218.072 6.04 220.632 3.64C223.219 1.21333 226.886 0 231.632 0ZM231.632 6.6C229.739 6.6 228.299 7.17333 227.312 8.32C226.326 9.46667 225.832 11.0133 225.832 12.96V15.52C225.832 17.4667 226.326 19.0133 227.312 20.16C228.299 21.3067 229.739 21.88 231.632 21.88C233.526 21.88 234.966 21.3067 235.952 20.16C236.966 19.0133 237.472 17.4667 237.472 15.52V12.96C237.472 11.0133 236.966 9.46667 235.952 8.32C234.966 7.17333 233.526 6.6 231.632 6.6Z" fill="black"/>
<path d="M251.273 0.480001H260.112V20.96H274.232V28H251.273V0.480001Z" fill="black"/>
<path d="M290.968 0C295.715 0 299.381 1.21333 301.968 3.64C304.555 6.06667 305.848 9.6 305.848 14.24C305.848 18.88 304.555 22.4133 301.968 24.84C299.381 27.2667 295.715 28.48 290.968 28.48C286.221 28.48 282.555 27.28 279.968 24.88C277.408 22.4533 276.128 18.9067 276.128 14.24C276.128 9.57333 277.408 6.04 279.968 3.64C282.555 1.21333 286.221 0 290.968 0ZM290.968 6.6C289.075 6.6 287.635 7.17333 286.648 8.32C285.661 9.46667 285.168 11.0133 285.168 12.96V15.52C285.168 17.4667 285.661 19.0133 286.648 20.16C287.635 21.3067 289.075 21.88 290.968 21.88C292.861 21.88 294.301 21.3067 295.288 20.16C296.301 19.0133 296.808 17.4667 296.808 15.52V12.96C296.808 11.0133 296.301 9.46667 295.288 8.32C294.301 7.17333 292.861 6.6 290.968 6.6Z" fill="black"/>
<path d="M336.728 8.92C336.728 10.6 336.275 12.12 335.368 13.48C334.462 14.84 333.142 15.84 331.408 16.48L337.528 28H327.608L322.728 17.96H319.448V28H310.608V0.480001H327.448C329.422 0.480001 331.102 0.866667 332.488 1.64C333.902 2.38667 334.955 3.41333 335.648 4.72C336.368 6 336.728 7.4 336.728 8.92ZM327.728 9.28C327.728 8.56 327.488 7.96 327.008 7.48C326.528 7 325.942 6.76 325.248 6.76H319.448V11.84H325.248C325.942 11.84 326.528 11.6 327.008 11.12C327.488 10.6133 327.728 10 327.728 9.28Z" fill="black"/>
</svg>
